<svg width="177" height="39" viewBox="0 0 177 39" fill="none" xmlns="http://www.w3.org/2000/svg">
<path d="M54.5948 5.63859H50.4985V3.19027H61.6535V5.63859H57.5572V16.1738H54.5948V5.63859Z" fill="#4F4F4F"/>
<path d="M74.9875 3.19027V16.1738H72.025V10.8505H66.2099V16.1738H63.2474V3.19027H66.2099V8.30948H72.025V3.19027H74.9875Z" fill="#4F4F4F"/>
<path d="M87.9275 13.7626V16.1738H78.0161V3.19027H87.6898V5.60149H80.9603V8.42077H86.9035V10.7578H80.9603V13.7626H87.9275Z" fill="#4F4F4F"/>
<path d="M104.095 9.478C104.936 9.66348 105.582 10.0344 106.033 10.5909C106.497 11.1349 106.728 11.8398 106.728 12.7053C106.728 13.8182 106.32 14.6776 105.503 15.2835C104.698 15.877 103.504 16.1738 101.919 16.1738H96.0304V3.19027H101.553C102.979 3.19027 104.083 3.48085 104.863 4.06202C105.655 4.64318 106.052 5.46547 106.052 6.52889C106.052 7.24607 105.875 7.85815 105.521 8.36513C105.18 8.85974 104.704 9.23069 104.095 9.478ZM97.3836 4.32169V9.03285H101.462C102.498 9.03285 103.296 8.83501 103.857 8.43932C104.418 8.03126 104.698 7.44391 104.698 6.67727C104.698 5.91062 104.418 5.32946 103.857 4.93377C103.296 4.52571 102.498 4.32169 101.462 4.32169H97.3836ZM101.9 15.0424C103.046 15.0424 103.912 14.8445 104.497 14.4488C105.082 14.0531 105.375 13.4349 105.375 12.594C105.375 10.9742 104.217 10.1643 101.9 10.1643H97.3836V15.0424H101.9Z" fill="#4F4F4F"/>
<path d="M109.817 3.19027H111.17V16.1738H109.817V3.19027Z" fill="#4F4F4F"/>
<path d="M120.931 16.2851C119.663 16.2851 118.511 16.0007 117.475 15.4319C116.451 14.8507 115.646 14.0593 115.061 13.0577C114.488 12.0562 114.201 10.9309 114.201 9.68202C114.201 8.43313 114.488 7.3079 115.061 6.30631C115.646 5.30473 116.451 4.51953 117.475 3.95073C118.511 3.36956 119.663 3.07898 120.931 3.07898C122.199 3.07898 123.339 3.36338 124.35 3.93218C125.374 4.50098 126.179 5.29236 126.764 6.30631C127.349 7.3079 127.642 8.43313 127.642 9.68202C127.642 10.9309 127.349 12.0623 126.764 13.0763C126.179 14.0779 125.374 14.8631 124.35 15.4319C123.339 16.0007 122.199 16.2851 120.931 16.2851ZM120.931 15.0609C121.943 15.0609 122.857 14.8322 123.674 14.3746C124.491 13.9048 125.131 13.2618 125.594 12.4457C126.057 11.6172 126.289 10.696 126.289 9.68202C126.289 8.66807 126.057 7.75305 125.594 6.93694C125.131 6.10847 124.491 5.46547 123.674 5.00796C122.857 4.53808 121.943 4.30314 120.931 4.30314C119.919 4.30314 118.998 4.53808 118.169 5.00796C117.353 5.46547 116.707 6.10847 116.231 6.93694C115.768 7.75305 115.536 8.66807 115.536 9.68202C115.536 10.696 115.768 11.6172 116.231 12.4457C116.707 13.2618 117.353 13.9048 118.169 14.3746C118.998 14.8322 119.919 15.0609 120.931 15.0609Z" fill="#4F4F4F"/>
<path d="M132.984 4.37733H128.485V3.19027H138.835V4.37733H134.337V16.1738H132.984V4.37733Z" fill="#4F4F4F"/>
<path d="M150.049 14.9867V16.1738H140.997V3.19027H149.775V4.37733H142.35V8.99575H148.97V10.1643H142.35V14.9867H150.049Z" fill="#4F4F4F"/>
<path d="M158.718 16.2851C157.45 16.2851 156.304 16.0007 155.28 15.4319C154.268 14.8631 153.469 14.0779 152.884 13.0763C152.311 12.0623 152.025 10.9309 152.025 9.68202C152.025 8.43313 152.311 7.3079 152.884 6.30631C153.469 5.29236 154.274 4.50098 155.298 3.93218C156.322 3.36338 157.468 3.07898 158.736 3.07898C159.687 3.07898 160.565 3.23973 161.369 3.56122C162.174 3.88272 162.857 4.3526 163.417 4.97086L162.558 5.84261C161.558 4.8163 160.297 4.30314 158.773 4.30314C157.761 4.30314 156.84 4.53808 156.011 5.00796C155.182 5.47784 154.53 6.12083 154.055 6.93694C153.591 7.75305 153.36 8.66807 153.36 9.68202C153.36 10.696 153.591 11.611 154.055 12.4271C154.53 13.2432 155.182 13.8862 156.011 14.3561C156.84 14.826 157.761 15.0609 158.773 15.0609C160.309 15.0609 161.571 14.5416 162.558 13.5029L163.417 14.3746C162.857 14.9929 162.168 15.469 161.351 15.8028C160.546 16.1243 159.669 16.2851 158.718 16.2851Z" fill="#4F4F4F"/>
<path d="M177 3.19027V16.1738H175.665V10.1828H167.655V16.1738H166.302V3.19027H167.655V8.97721H175.665V3.19027H177Z" fill="#4F4F4F"/>
<path d="M58.0692 39C56.7648 39 55.5823 38.7156 54.5216 38.1468C53.4732 37.5657 52.6442 36.7681 52.0346 35.7542C51.4373 34.7278 51.1386 33.5717 51.1386 32.2857C51.1386 30.9997 51.4373 29.8497 52.0346 28.8358C52.6442 27.8095 53.4732 27.0119 54.5216 26.4431C55.5823 25.8619 56.7709 25.5714 58.0875 25.5714C59.1969 25.5714 60.1966 25.7692 61.0866 26.1649C61.9887 26.5606 62.7446 27.1294 63.3541 27.8713L61.4523 29.6519C60.5867 28.638 59.5139 28.131 58.2338 28.131C57.4414 28.131 56.7343 28.3103 56.1126 28.6689C55.4908 29.0151 55.0032 29.5035 54.6496 30.1341C54.3083 30.7648 54.1376 31.482 54.1376 32.2857C54.1376 33.0894 54.3083 33.8066 54.6496 34.4373C55.0032 35.0679 55.4908 35.5625 56.1126 35.9211C56.7343 36.2673 57.4414 36.4404 58.2338 36.4404C59.5139 36.4404 60.5867 35.9273 61.4523 34.9009L63.3541 36.6815C62.7446 37.4358 61.9887 38.0108 61.0866 38.4065C60.1844 38.8022 59.1786 39 58.0692 39Z" fill="#4F4F4F"/>
<path d="M72.2003 39C70.8715 39 69.6707 38.7094 68.5978 38.1283C67.5372 37.5471 66.7021 36.7496 66.0926 35.7356C65.4952 34.7093 65.1965 33.5593 65.1965 32.2857C65.1965 31.0121 65.4952 29.8683 66.0926 28.8543C66.7021 27.828 67.5372 27.0243 68.5978 26.4431C69.6707 25.8619 70.8715 25.5714 72.2003 25.5714C73.5292 25.5714 74.7239 25.8619 75.7845 26.4431C76.8452 27.0243 77.6803 27.828 78.2898 28.8543C78.8994 29.8683 79.2042 31.0121 79.2042 32.2857C79.2042 33.5593 78.8994 34.7093 78.2898 35.7356C77.6803 36.7496 76.8452 37.5471 75.7845 38.1283C74.7239 38.7094 73.5292 39 72.2003 39ZM72.2003 36.4404C72.9562 36.4404 73.6389 36.2673 74.2484 35.9211C74.858 35.5625 75.3335 35.0679 75.6748 34.4373C76.0284 33.8066 76.2051 33.0894 76.2051 32.2857C76.2051 31.482 76.0284 30.7648 75.6748 30.1341C75.3335 29.5035 74.858 29.0151 74.2484 28.6689C73.6389 28.3103 72.9562 28.131 72.2003 28.131C71.4445 28.131 70.7618 28.3103 70.1522 28.6689C69.5427 29.0151 69.0611 29.5035 68.7076 30.1341C68.3662 30.7648 68.1955 31.482 68.1955 32.2857C68.1955 33.0894 68.3662 33.8066 68.7076 34.4373C69.0611 35.0679 69.5427 35.5625 70.1522 35.9211C70.7618 36.2673 71.4445 36.4404 72.2003 36.4404Z" fill="#4F4F4F"/>
<path d="M82.3449 25.7939H85.3074V36.3291H91.726V38.7775H82.3449V25.7939Z" fill="#4F4F4F"/>
<path d="M94.2956 25.7939H97.258V36.3291H103.677V38.7775H94.2956V25.7939Z" fill="#4F4F4F"/>
<path d="M116.158 36.3662V38.7775H106.246V25.7939H115.92V28.2052H109.19V31.0244H115.134V33.3615H109.19V36.3662H116.158Z" fill="#4F4F4F"/>
<path d="M125.519 39C124.215 39 123.032 38.7156 121.972 38.1468C120.923 37.5657 120.094 36.7681 119.485 35.7542C118.887 34.7278 118.589 33.5717 118.589 32.2857C118.589 30.9997 118.887 29.8497 119.485 28.8358C120.094 27.8095 120.923 27.0119 121.972 26.4431C123.032 25.8619 124.221 25.5714 125.538 25.5714C126.647 25.5714 127.647 25.7692 128.537 26.1649C129.439 26.5606 130.195 27.1294 130.804 27.8713L128.903 29.6519C128.037 28.638 126.964 28.131 125.684 28.131C124.892 28.131 124.185 28.3103 123.563 28.6689C122.941 29.0151 122.453 29.5035 122.1 30.1341C121.759 30.7648 121.588 31.482 121.588 32.2857C121.588 33.0894 121.759 33.8066 122.1 34.4373C122.453 35.0679 122.941 35.5625 123.563 35.9211C124.185 36.2673 124.892 36.4404 125.684 36.4404C126.964 36.4404 128.037 35.9273 128.903 34.9009L130.804 36.6815C130.195 37.4358 129.439 38.0108 128.537 38.4065C127.635 38.8022 126.629 39 125.519 39Z" fill="#4F4F4F"/>
<path d="M136.246 28.2423H132.15V25.7939H143.304V28.2423H139.208V38.7775H136.246V28.2423Z" fill="#4F4F4F"/>
<path d="M145.813 25.7939H148.775V38.7775H145.813V25.7939Z" fill="#4F4F4F"/>
<path d="M164.963 25.7939L159.422 38.7775H156.496L150.974 25.7939H154.174L158.069 35.0679L162.019 25.7939H164.963Z" fill="#4F4F4F"/>
<path d="M176.858 36.3662V38.7775H166.946V25.7939H176.62V28.2052H169.89V31.0244H175.833V33.3615H169.89V36.3662H176.858Z" fill="#4F4F4F"/>
<path d="M27.5298 31.8694C24.9336 29.1915 24.9336 24.9937 27.5298 22.3158C29.0348 20.7598 29.0348 18.3352 27.5298 16.7429C24.9336 14.065 24.9336 9.86722 27.5298 7.18932C29.1101 5.56087 29.0348 2.99153 27.3417 1.43545C25.6485 -0.0844361 22.9771 -0.0120606 21.3591 1.61639C19.8165 3.17247 19.8165 5.63324 21.3591 7.18932C23.9553 9.86722 23.9553 14.065 21.3591 16.7429C19.8541 18.299 19.8541 20.7236 21.3591 22.3158C23.9553 24.9937 23.9553 29.1915 21.3591 31.8694C19.7789 33.4979 19.8541 36.0672 21.5473 37.6233C23.2404 39.1794 25.9119 39.0708 27.5298 37.4423C29.0348 35.8501 29.0348 33.4255 27.5298 31.8694Z" fill="url(#paint0_linear_132_623)"/>
<path d="M37.6123 31.8685C35.0227 29.1847 35.0227 24.9777 37.6123 22.294C39.1885 20.662 39.1135 18.087 37.4246 16.5275C35.7358 15.0043 33.0711 15.0768 31.4573 16.7088C29.9185 18.2683 29.9185 20.7345 31.4573 22.294C34.0469 24.9777 34.0469 29.1847 31.4573 31.8685C29.881 33.5005 29.9561 36.0755 31.6449 37.635C33.3338 39.1582 35.9985 39.0857 37.6123 37.4536C39.151 35.8579 39.151 33.428 37.6123 31.8685Z" fill="url(#paint1_linear_132_623)"/>
<path d="M17.4287 31.8685C14.8325 29.1847 14.8325 24.9777 17.4287 22.294C19.009 20.662 18.9338 18.087 17.2406 16.5275C15.5474 15.0043 12.876 15.0768 11.2581 16.7088C9.71541 18.2683 9.71541 20.7345 11.2581 22.294C13.8543 24.9777 13.8543 29.1847 11.2581 31.8685C9.67778 33.5005 9.75303 36.0755 11.4462 37.635C13.1394 39.1582 15.8108 39.0857 17.4287 37.4536C18.9338 35.8579 18.9338 33.428 17.4287 31.8685Z" fill="url(#paint2_linear_132_623)"/>
<path d="M4.23156 38.7293C6.56858 38.7293 8.46311 36.8922 8.46311 34.626C8.46311 32.3598 6.56858 30.5226 4.23156 30.5226C1.89453 30.5226 0 32.3598 0 34.626C0 36.8922 1.89453 38.7293 4.23156 38.7293Z" fill="url(#paint3_linear_132_623)"/>
<defs>
<linearGradient id="paint0_linear_132_623" x1="39.237" y1="7.74509" x2="14.8611" y2="28.7229" gradientUnits="userSpaceOnUse">
<stop stop-color="#9DD79B"/>
<stop offset="1" stop-color="#41A49F"/>
</linearGradient>
<linearGradient id="paint1_linear_132_623" x1="44.6691" y1="18.9804" x2="20.2572" y2="39.8901" gradientUnits="userSpaceOnUse">
<stop stop-color="#9DD79B"/>
<stop offset="1" stop-color="#41A49F"/>
</linearGradient>
<linearGradient id="paint2_linear_132_623" x1="33.8047" y1="11.5422" x2="9.38338" y2="32.5132" gradientUnits="userSpaceOnUse">
<stop stop-color="#9DD79B"/>
<stop offset="1" stop-color="#41A49F"/>
</linearGradient>
<linearGradient id="paint3_linear_132_623" x1="3.41526" y1="38.7578" x2="3.41292" y2="30.5351" gradientUnits="userSpaceOnUse">
<stop stop-color="#CE3422"/>
<stop offset="1" stop-color="#FF9285"/>
</linearGradient>
</defs>
</svg>
