<svg width="35" height="35" viewBox="0 0 35 35" fill="none" xmlns="http://www.w3.org/2000/svg">
<path d="M11.6667 27.7084H23.3333V24.7917H11.6667V27.7084ZM12.4469 21.8751H22.5531C22.0413 20.9879 21.3047 20.2512 20.4176 19.7392C19.5306 19.2272 18.5242 18.9579 17.5 18.9584C15.3417 18.9584 13.456 20.1309 12.4469 21.8751ZM23.3333 10.2084V7.29175H11.6667V10.2084H23.3333ZM22.5531 13.1251H12.4469C12.9587 14.0123 13.6953 14.7489 14.5824 15.261C15.4694 15.773 16.4758 16.0423 17.5 16.0417C19.6583 16.0417 21.544 14.8692 22.5531 13.1251ZM22.3388 17.5001C23.5422 18.2979 24.5293 19.3814 25.2118 20.6538C25.8943 21.9262 26.251 23.3479 26.25 24.7917V30.6251C26.25 31.0119 26.0964 31.3828 25.8229 31.6563C25.5494 31.9298 25.1784 32.0834 24.7917 32.0834C24.4049 32.0834 24.034 31.9298 23.7605 31.6563C23.487 31.3828 23.3333 31.0119 23.3333 30.6251H11.6667C11.6667 31.0119 11.513 31.3828 11.2395 31.6563C10.966 31.9298 10.5951 32.0834 10.2083 32.0834C9.82156 32.0834 9.45063 31.9298 9.17714 31.6563C8.90365 31.3828 8.75 31.0119 8.75 30.6251V24.7917C8.74901 23.3479 9.1057 21.9262 9.78821 20.6538C10.4707 19.3814 11.4578 18.2979 12.6613 17.5001C11.4578 16.7023 10.4707 15.6187 9.78821 14.3463C9.1057 13.074 8.74901 11.6523 8.75 10.2084V4.37508C8.75 3.98831 8.90365 3.61737 9.17714 3.34388C9.45063 3.07039 9.82156 2.91675 10.2083 2.91675C10.5951 2.91675 10.966 3.07039 11.2395 3.34388C11.513 3.61737 11.6667 3.98831 11.6667 4.37508H23.3333C23.3333 3.98831 23.487 3.61737 23.7605 3.34388C24.034 3.07039 24.4049 2.91675 24.7917 2.91675C25.1784 2.91675 25.5494 3.07039 25.8229 3.34388C26.0964 3.61737 26.25 3.98831 26.25 4.37508V10.2084C26.251 11.6523 25.8943 13.074 25.2118 14.3463C24.5293 15.6187 23.5422 16.7023 22.3388 17.5001Z" fill="#71CBAB"/>
</svg>
