<svg width="36" height="35" viewBox="0 0 36 35" fill="none" xmlns="http://www.w3.org/2000/svg">
<path d="M13.3841 18.9584C16.6058 18.9584 19.2174 16.3467 19.2174 13.1251C19.2174 9.90342 16.6058 7.29175 13.3841 7.29175C10.1625 7.29175 7.55078 9.90342 7.55078 13.1251C7.55078 16.3467 10.1625 18.9584 13.3841 18.9584Z" fill="#71CBAB"/>
<path d="M13.3844 21.8751C9.49069 21.8751 1.71777 23.8292 1.71777 27.7084V30.6251H25.0511V27.7084C25.0511 23.8292 17.2782 21.8751 13.3844 21.8751ZM24.7011 7.81675L22.2511 10.2813C23.4761 12.0022 23.4761 14.2334 22.2511 15.9542L24.7011 18.4188C27.6469 15.473 27.6469 11.0251 24.7011 7.81675ZM29.5282 2.91675L27.1511 5.29383C31.1907 9.698 31.1907 16.3188 27.1511 20.9563L29.5282 23.3334C35.2157 17.6605 35.2303 8.823 29.5282 2.91675Z" fill="#71CBAB"/>
</svg>
