<svg width="137" height="136" viewBox="0 0 137 136" fill="none" xmlns="http://www.w3.org/2000/svg">
<g clip-path="url(#clip0_195_2313)">
<path fill-rule="evenodd" clip-rule="evenodd" d="M68.5 127.5C84.3964 127.5 99.6417 121.231 110.882 110.073C122.123 98.9144 128.438 83.7804 128.438 68C128.438 52.2196 122.123 37.0856 110.882 25.9271C99.6417 14.7687 84.3964 8.5 68.5 8.5C52.6036 8.5 37.3582 14.7687 26.1178 25.9271C14.8773 37.0856 8.5625 52.2196 8.5625 68C8.5625 83.7804 14.8773 98.9144 26.1178 110.073C37.3582 121.231 52.6036 127.5 68.5 127.5ZM68.5 136C86.6673 136 104.091 128.836 116.937 116.083C129.783 103.331 137 86.0347 137 68C137 49.9653 129.783 32.6692 116.937 19.9167C104.091 7.16427 86.6673 0 68.5 0C50.3327 0 32.9094 7.16427 20.0632 19.9167C7.21694 32.6692 0 49.9653 0 68C0 86.0347 7.21694 103.331 20.0632 116.083C32.9094 128.836 50.3327 136 68.5 136Z" fill="white" style="mix-blend-mode:multiply"/>
<path fill-rule="evenodd" clip-rule="evenodd" d="M93.9305 42.2449C95.1289 41.0657 96.7465 40.4021 98.4338 40.3975C100.121 40.3929 101.742 41.0476 102.947 42.2202C104.152 43.3929 104.844 44.9891 104.872 46.6638C104.901 48.3386 104.265 49.9573 103.101 51.1699L68.9195 93.585C68.332 94.2131 67.623 94.7172 66.8348 95.0671C66.0466 95.417 65.1954 95.6055 64.3321 95.6214C63.4689 95.6372 62.6112 95.4801 61.8105 95.1594C61.0098 94.8387 60.2825 94.3611 59.672 93.755L37.0242 71.2639C36.3932 70.6803 35.8872 69.9765 35.5362 69.1945C35.1852 68.4125 34.9964 67.5684 34.9812 66.7124C34.966 65.8564 35.1246 65.0062 35.4476 64.2124C35.7706 63.4186 36.2513 62.6975 36.8612 62.0921C37.471 61.4868 38.1974 61.0095 38.997 60.6889C39.7966 60.3683 40.6531 60.2108 41.5154 60.2259C42.3777 60.241 43.228 60.4284 44.0158 60.7768C44.8035 61.1252 45.5125 61.6276 46.1004 62.2539L64.0303 80.0444L93.7679 42.4319C93.8209 42.3661 93.8781 42.3036 93.9391 42.2449H93.9305Z" fill="white" style="mix-blend-mode:multiply"/>
</g>
<defs>
<clipPath id="clip0_195_2313">
<rect width="137" height="136" fill="white"/>
</clipPath>
</defs>
</svg>
