<svg width="177" height="39" viewBox="0 0 177 39" fill="none" xmlns="http://www.w3.org/2000/svg">
<path d="M54.5948 5.63871H50.4985V3.19039H61.6535V5.63871H57.5572V16.1739H54.5948V5.63871Z" fill="white"/>
<path d="M74.9875 3.19039V16.1739H72.025V10.8507H66.2099V16.1739H63.2474V3.19039H66.2099V8.3096H72.025V3.19039H74.9875Z" fill="white"/>
<path d="M87.9275 13.7627V16.1739H78.0161V3.19039H87.6898V5.60161H80.9603V8.42089H86.9035V10.7579H80.9603V13.7627H87.9275Z" fill="white"/>
<path d="M104.095 9.47812C104.936 9.6636 105.582 10.0346 106.033 10.591C106.497 11.1351 106.728 11.8399 106.728 12.7055C106.728 13.8183 106.32 14.6777 105.503 15.2836C104.698 15.8771 103.504 16.1739 101.919 16.1739H96.0304V3.19039H101.553C102.979 3.19039 104.083 3.48097 104.863 4.06214C105.655 4.64331 106.052 5.4656 106.052 6.52901C106.052 7.24619 105.875 7.85827 105.521 8.36525C105.18 8.85986 104.704 9.23082 104.095 9.47812ZM97.3836 4.32181V9.03297H101.462C102.498 9.03297 103.296 8.83513 103.857 8.43944C104.418 8.03139 104.698 7.44404 104.698 6.67739C104.698 5.91074 104.418 5.32958 103.857 4.93389C103.296 4.52584 102.498 4.32181 101.462 4.32181H97.3836ZM101.9 15.0425C103.046 15.0425 103.912 14.8446 104.497 14.449C105.082 14.0533 105.375 13.435 105.375 12.5942C105.375 10.9743 104.217 10.1644 101.9 10.1644H97.3836V15.0425H101.9Z" fill="white"/>
<path d="M109.817 3.19039H111.17V16.1739H109.817V3.19039Z" fill="white"/>
<path d="M120.931 16.2852C119.663 16.2852 118.511 16.0008 117.475 15.432C116.451 14.8508 115.646 14.0594 115.061 13.0579C114.488 12.0563 114.201 10.931 114.201 9.68215C114.201 8.43326 114.488 7.30802 115.061 6.30643C115.646 5.30485 116.451 4.51965 117.475 3.95085C118.511 3.36969 119.663 3.0791 120.931 3.0791C122.199 3.0791 123.339 3.3635 124.35 3.9323C125.374 4.50111 126.179 5.29248 126.764 6.30643C127.349 7.30802 127.642 8.43326 127.642 9.68215C127.642 10.931 127.349 12.0625 126.764 13.0764C126.179 14.078 125.374 14.8632 124.35 15.432C123.339 16.0008 122.199 16.2852 120.931 16.2852ZM120.931 15.061C121.943 15.061 122.857 14.8323 123.674 14.3748C124.491 13.9049 125.131 13.2619 125.594 12.4458C126.057 11.6173 126.289 10.6961 126.289 9.68215C126.289 8.6682 126.057 7.75317 125.594 6.93706C125.131 6.10859 124.491 5.4656 123.674 5.00808C122.857 4.5382 121.943 4.30326 120.931 4.30326C119.919 4.30326 118.998 4.5382 118.169 5.00808C117.353 5.4656 116.707 6.10859 116.231 6.93706C115.768 7.75317 115.536 8.6682 115.536 9.68215C115.536 10.6961 115.768 11.6173 116.231 12.4458C116.707 13.2619 117.353 13.9049 118.169 14.3748C118.998 14.8323 119.919 15.061 120.931 15.061Z" fill="white"/>
<path d="M132.984 4.37745H128.485V3.19039H138.835V4.37745H134.337V16.1739H132.984V4.37745Z" fill="white"/>
<path d="M150.049 14.9868V16.1739H140.997V3.19039H149.775V4.37745H142.35V8.99588H148.97V10.1644H142.35V14.9868H150.049Z" fill="white"/>
<path d="M158.718 16.2852C157.45 16.2852 156.304 16.0008 155.28 15.432C154.268 14.8632 153.469 14.078 152.884 13.0764C152.311 12.0625 152.025 10.931 152.025 9.68215C152.025 8.43326 152.311 7.30802 152.884 6.30643C153.469 5.29248 154.274 4.50111 155.298 3.9323C156.322 3.3635 157.468 3.0791 158.736 3.0791C159.687 3.0791 160.565 3.23985 161.369 3.56135C162.174 3.88284 162.857 4.35272 163.417 4.97099L162.558 5.84274C161.558 4.81642 160.297 4.30326 158.773 4.30326C157.761 4.30326 156.84 4.5382 156.011 5.00808C155.182 5.47796 154.53 6.12095 154.055 6.93706C153.591 7.75317 153.36 8.6682 153.36 9.68215C153.36 10.6961 153.591 11.6111 154.055 12.4272C154.53 13.2433 155.182 13.8863 156.011 14.3562C156.84 14.8261 157.761 15.061 158.773 15.061C160.309 15.061 161.571 14.5417 162.558 13.503L163.417 14.3748C162.857 14.993 162.168 15.4691 161.351 15.8029C160.546 16.1244 159.669 16.2852 158.718 16.2852Z" fill="white"/>
<path d="M177 3.19039V16.1739H175.665V10.1829H167.655V16.1739H166.302V3.19039H167.655V8.97733H175.665V3.19039H177Z" fill="white"/>
<path d="M58.0692 39.0002C56.7648 39.0002 55.5823 38.7158 54.5216 38.147C53.4732 37.5658 52.6442 36.7682 52.0346 35.7543C51.4373 34.728 51.1386 33.5718 51.1386 32.2858C51.1386 30.9998 51.4373 29.8499 52.0346 28.8359C52.6442 27.8096 53.4732 27.012 54.5216 26.4432C55.5823 25.8621 56.7709 25.5715 58.0875 25.5715C59.1969 25.5715 60.1966 25.7693 61.0866 26.165C61.9887 26.5607 62.7446 27.1295 63.3541 27.8714L61.4523 29.652C60.5867 28.6381 59.5139 28.1311 58.2338 28.1311C57.4414 28.1311 56.7343 28.3104 56.1126 28.669C55.4908 29.0152 55.0032 29.5036 54.6496 30.1343C54.3083 30.7649 54.1376 31.4821 54.1376 32.2858C54.1376 33.0896 54.3083 33.8067 54.6496 34.4374C55.0032 35.068 55.4908 35.5626 56.1126 35.9212C56.7343 36.2674 57.4414 36.4405 58.2338 36.4405C59.5139 36.4405 60.5867 35.9274 61.4523 34.9011L63.3541 36.6817C62.7446 37.436 61.9887 38.0109 61.0866 38.4066C60.1844 38.8023 59.1786 39.0002 58.0692 39.0002Z" fill="white"/>
<path d="M72.2003 39.0002C70.8715 39.0002 69.6707 38.7096 68.5978 38.1284C67.5372 37.5472 66.7021 36.7497 66.0926 35.7357C65.4952 34.7094 65.1965 33.5594 65.1965 32.2858C65.1965 31.0122 65.4952 29.8684 66.0926 28.8545C66.7021 27.8281 67.5372 27.0244 68.5978 26.4432C69.6707 25.8621 70.8715 25.5715 72.2003 25.5715C73.5292 25.5715 74.7239 25.8621 75.7845 26.4432C76.8452 27.0244 77.6803 27.8281 78.2898 28.8545C78.8994 29.8684 79.2042 31.0122 79.2042 32.2858C79.2042 33.5594 78.8994 34.7094 78.2898 35.7357C77.6803 36.7497 76.8452 37.5472 75.7845 38.1284C74.7239 38.7096 73.5292 39.0002 72.2003 39.0002ZM72.2003 36.4405C72.9562 36.4405 73.6389 36.2674 74.2484 35.9212C74.858 35.5626 75.3335 35.068 75.6748 34.4374C76.0284 33.8067 76.2051 33.0896 76.2051 32.2858C76.2051 31.4821 76.0284 30.7649 75.6748 30.1343C75.3335 29.5036 74.858 29.0152 74.2484 28.669C73.6389 28.3104 72.9562 28.1311 72.2003 28.1311C71.4445 28.1311 70.7618 28.3104 70.1522 28.669C69.5427 29.0152 69.0611 29.5036 68.7076 30.1343C68.3662 30.7649 68.1955 31.4821 68.1955 32.2858C68.1955 33.0896 68.3662 33.8067 68.7076 34.4374C69.0611 35.068 69.5427 35.5626 70.1522 35.9212C70.7618 36.2674 71.4445 36.4405 72.2003 36.4405Z" fill="white"/>
<path d="M82.3449 25.7941H85.3074V36.3293H91.726V38.7776H82.3449V25.7941Z" fill="white"/>
<path d="M94.2956 25.7941H97.258V36.3293H103.677V38.7776H94.2956V25.7941Z" fill="white"/>
<path d="M116.158 36.3664V38.7776H106.246V25.7941H115.92V28.2053H109.19V31.0246H115.134V33.3616H109.19V36.3664H116.158Z" fill="white"/>
<path d="M125.519 39.0002C124.215 39.0002 123.032 38.7158 121.972 38.147C120.923 37.5658 120.094 36.7682 119.485 35.7543C118.887 34.728 118.589 33.5718 118.589 32.2858C118.589 30.9998 118.887 29.8499 119.485 28.8359C120.094 27.8096 120.923 27.012 121.972 26.4432C123.032 25.8621 124.221 25.5715 125.538 25.5715C126.647 25.5715 127.647 25.7693 128.537 26.165C129.439 26.5607 130.195 27.1295 130.804 27.8714L128.903 29.652C128.037 28.6381 126.964 28.1311 125.684 28.1311C124.892 28.1311 124.185 28.3104 123.563 28.669C122.941 29.0152 122.453 29.5036 122.1 30.1343C121.759 30.7649 121.588 31.4821 121.588 32.2858C121.588 33.0896 121.759 33.8067 122.1 34.4374C122.453 35.068 122.941 35.5626 123.563 35.9212C124.185 36.2674 124.892 36.4405 125.684 36.4405C126.964 36.4405 128.037 35.9274 128.903 34.9011L130.804 36.6817C130.195 37.436 129.439 38.0109 128.537 38.4066C127.635 38.8023 126.629 39.0002 125.519 39.0002Z" fill="white"/>
<path d="M136.246 28.2424H132.15V25.7941H143.304V28.2424H139.208V38.7776H136.246V28.2424Z" fill="white"/>
<path d="M145.813 25.7941H148.775V38.7776H145.813V25.7941Z" fill="white"/>
<path d="M164.963 25.7941L159.422 38.7776H156.496L150.974 25.7941H154.174L158.069 35.068L162.019 25.7941H164.963Z" fill="white"/>
<path d="M176.858 36.3664V38.7776H166.946V25.7941H176.62V28.2053H169.89V31.0246H175.833V33.3616H169.89V36.3664H176.858Z" fill="white"/>
<path d="M27.5298 31.8693C24.9336 29.1914 24.9336 24.9936 27.5298 22.3157C29.0348 20.7596 29.0348 18.335 27.5298 16.7428C24.9336 14.0649 24.9336 9.8671 27.5298 7.1892C29.1101 5.56075 29.0348 2.99141 27.3417 1.43533C25.6485 -0.0845582 22.9771 -0.0121826 21.3591 1.61627C19.8165 3.17235 19.8165 5.63312 21.3591 7.1892C23.9553 9.8671 23.9553 14.0649 21.3591 16.7428C19.8541 18.2989 19.8541 20.7234 21.3591 22.3157C23.9553 24.9936 23.9553 29.1914 21.3591 31.8693C19.7789 33.4977 19.8541 36.0671 21.5473 37.6232C23.2404 39.1792 25.9119 39.0707 27.5298 37.4422C29.0348 35.85 29.0348 33.4254 27.5298 31.8693Z" fill="url(#paint0_linear_132_722)"/>
<path d="M37.6123 31.8686C35.0227 29.1848 35.0227 24.9778 37.6123 22.294C39.1885 20.662 39.1135 18.0871 37.4246 16.5276C35.7358 15.0043 33.0711 15.0769 31.4573 16.7089C29.9185 18.2684 29.9185 20.7345 31.4573 22.294C34.0469 24.9778 34.0469 29.1848 31.4573 31.8686C29.881 33.5006 29.9561 36.0755 31.6449 37.635C33.3338 39.1582 35.9985 39.0857 37.6123 37.4537C39.151 35.8579 39.151 33.428 37.6123 31.8686Z" fill="url(#paint1_linear_132_722)"/>
<path d="M17.4287 31.8686C14.8325 29.1848 14.8325 24.9778 17.4287 22.294C19.009 20.662 18.9338 18.0871 17.2406 16.5276C15.5474 15.0043 12.876 15.0769 11.2581 16.7089C9.71541 18.2684 9.71541 20.7345 11.2581 22.294C13.8543 24.9778 13.8543 29.1848 11.2581 31.8686C9.67778 33.5006 9.75303 36.0755 11.4462 37.635C13.1394 39.1582 15.8108 39.0857 17.4287 37.4537C18.9338 35.8579 18.9338 33.428 17.4287 31.8686Z" fill="url(#paint2_linear_132_722)"/>
<path d="M4.23156 38.7291C6.56858 38.7291 8.46311 36.892 8.46311 34.6258C8.46311 32.3596 6.56858 30.5225 4.23156 30.5225C1.89453 30.5225 0 32.3596 0 34.6258C0 36.892 1.89453 38.7291 4.23156 38.7291Z" fill="url(#paint3_linear_132_722)"/>
<defs>
<linearGradient id="paint0_linear_132_722" x1="39.237" y1="7.74497" x2="14.8611" y2="28.7228" gradientUnits="userSpaceOnUse">
<stop stop-color="#9DD79B"/>
<stop offset="1" stop-color="#41A49F"/>
</linearGradient>
<linearGradient id="paint1_linear_132_722" x1="44.6691" y1="18.9805" x2="20.2572" y2="39.8902" gradientUnits="userSpaceOnUse">
<stop stop-color="#9DD79B"/>
<stop offset="1" stop-color="#41A49F"/>
</linearGradient>
<linearGradient id="paint2_linear_132_722" x1="33.8047" y1="11.5423" x2="9.38338" y2="32.5132" gradientUnits="userSpaceOnUse">
<stop stop-color="#9DD79B"/>
<stop offset="1" stop-color="#41A49F"/>
</linearGradient>
<linearGradient id="paint3_linear_132_722" x1="3.41526" y1="38.7576" x2="3.41292" y2="30.5349" gradientUnits="userSpaceOnUse">
<stop stop-color="#CE3422"/>
<stop offset="1" stop-color="#FF9285"/>
</linearGradient>
</defs>
</svg>
