<svg width="35" height="35" viewBox="0 0 35 35" fill="none" xmlns="http://www.w3.org/2000/svg">
<path d="M33.247 16.6274H30.594C30.1631 10.0757 24.9264 4.83795 18.3741 4.4071V1.7541C18.3695 1.52567 18.2755 1.30813 18.1124 1.1482C17.9492 0.988265 17.7298 0.898682 17.5013 0.898682C17.2729 0.898682 17.0535 0.988265 16.8903 1.1482C16.7271 1.30813 16.6332 1.52567 16.6286 1.7541V4.4071C10.0759 4.83795 4.83956 10.0754 4.40871 16.6274H1.75571C1.5242 16.6274 1.30218 16.7193 1.13848 16.883C0.974778 17.0467 0.882813 17.2687 0.882812 17.5003C0.882813 17.7318 0.974778 17.9538 1.13848 18.1175C1.30218 18.2812 1.5242 18.3732 1.75571 18.3732H4.40836C4.83851 24.9259 10.0752 30.1626 16.6286 30.5931V33.2461C16.6332 33.4745 16.7271 33.692 16.8903 33.852C17.0535 34.0119 17.2729 34.1015 17.5013 34.1015C17.7298 34.1015 17.9492 34.0119 18.1124 33.852C18.2755 33.692 18.3695 33.4745 18.3741 33.2461V30.5931C24.9271 30.1626 30.1638 24.9255 30.5943 18.3732H33.247C33.4785 18.3732 33.7005 18.2812 33.8642 18.1175C34.0279 17.9538 34.1199 17.7318 34.1199 17.5003C34.1199 17.2687 34.0279 17.0467 33.8642 16.883C33.7005 16.7193 33.4785 16.6274 33.247 16.6274ZM16.6283 27.1053C12.0041 26.6885 8.31261 22.9967 7.89611 18.3732H9.64261C10.0458 22.0426 12.9589 24.9556 16.6283 25.3588V27.1053ZM16.6283 9.6417C12.9589 10.0449 10.0458 12.958 9.64261 16.6274H7.89611C8.31331 12.0046 12.0044 8.3124 16.6279 7.8952V9.6417H16.6283ZM18.3741 7.89555C22.9976 8.3124 26.6887 12.0046 27.1059 16.6274H25.3597C24.9565 12.9576 22.0435 10.0446 18.3741 9.6417V7.89555ZM18.3741 27.1053V25.3592C22.0435 24.956 24.9565 22.0429 25.3597 18.3735H27.1059C26.6894 22.9967 22.9979 26.6881 18.3741 27.1053Z" fill="#71CBAB"/>
</svg>
